ffmpeg version 4.2.2 Copyright (c) 2000-2019 the FFmpeg developers
  built with Apple clang version 11.0.0 (clang-1100.0.33.8)
  configuration: --enable-gpl --enable-version3 --enable-sdl2 --enable-fontconfig --enable-gnutls --enable-iconv --enable-libass --enable-libdav1d --enable-libbluray --enable-libfreetype --enable-libmp3lame --enable-libopencore-amrnb --enable-libopencore-amrwb --enable-libopenjpeg --enable-libopus --enable-libshine --enable-libsnappy --enable-libsoxr --enable-libtheora --enable-libtwolame --enable-libvpx --enable-libwavpack --enable-libwebp --enable-libx264 --enable-libx265 --enable-libxml2 --enable-libzimg --enable-lzma --enable-zlib --enable-gmp --enable-libvidstab --enable-libvorbis --enable-libvo-amrwbenc --enable-libmysofa --enable-libspeex --enable-libxvid --enable-libaom --enable-appkit --enable-avfoundation --enable-coreimage --enable-audiotoolbox
  libavutil      56. 31.100 / 56. 31.100
  libavcodec     58. 54.100 / 58. 54.100
  libavformat    58. 29.100 / 58. 29.100
  libavdevice    58.  8.100 / 58.  8.100
  libavfilter     7. 57.100 /  7. 57.100
  libswscale      5.  5.100 /  5.  5.100
  libswresample   3.  5.100 /  3.  5.100
  libpostproc    55.  5.100 / 55.  5.100
Guessed Channel Layout for Input Stream #0.0 : stereo
Input #0, s16le, from 'pipe:':
  Duration: N/A, bitrate: 1411 kb/s
    Stream #0:0: Audio: pcm_s16le, 44100 Hz, stereo, s16, 1411 kb/s
Stream mapping:
  Stream #0:0 -> #0:0 (pcm_s16le (native) -> mp3 (libmp3lame))
Output #0, mp3, to 'converted_audio.mp3':
  Metadata:
    TSSE            : Lavf58.29.100
    Stream #0:0: Audio: mp3 (libmp3lame), 44100 Hz, stereo, s16p
    Metadata:
      encoder         : Lavc58.54.100 libmp3lame
size=     256kB time=00:00:31.73 bitrate=  66.1kbits/s speed=63.5x    size=    1024kB time=00:01:10.66 bitrate= 118.7kbits/s speed=70.6x    size=    1536kB time=00:01:49.71 bitrate= 114.7kbits/s speed=73.1x    size=    2240kB time=00:02:23.33 bitrate= 128.0kbits/s speed=74.6x    
video:0kB audio:2240kB subtitle:0kB other streams:0kB global headers:0kB muxing overhead: 0.011030%
